HIERARCHY
ROOT Hip
{
  OFFSET 0.000000 0.000000 0.000000
  CHANNELS 6 Xposition Yposition Zposition Zrotation Xrotation Yrotation
  JOINT RHip
  {
    OFFSET 0.000000 0.000000 0.000000
    CHANNELS 3 Xposition Yposition Zposition
    End Site
    {
      OFFSET 0.000000 0.100000 0.000000
    }
  }
  JOINT RKnee
  {
    OFFSET 0.000000 0.000000 0.000000
    CHANNELS 3 Xposition Yposition Zposition
    End Site
    {
      OFFSET 0.000000 0.100000 0.000000
    }
  }
  JOINT RFoot
  {
    OFFSET 0.000000 0.000000 0.000000
    CHANNELS 3 Xposition Yposition Zposition
    End Site
    {
      OFFSET 0.000000 0.100000 0.000000
    }
  }
  JOINT LHip
  {
    OFFSET 0.000000 0.000000 0.000000
    CHANNELS 3 Xposition Yposition Zposition
    End Site
    {
      OFFSET 0.000000 0.100000 0.000000
    }
  }
  JOINT LKnee
  {
    OFFSET 0.000000 0.000000 0.000000
    CHANNELS 3 Xposition Yposition Zposition
    End Site
    {
      OFFSET 0.000000 0.100000 0.000000
    }
  }
  JOINT LFoot
  {
    OFFSET 0.000000 0.000000 0.000000
    CHANNELS 3 Xposition Yposition Zposition
    End Site
    {
      OFFSET 0.000000 0.100000 0.000000
    }
  }
  JOINT Spine
  {
    OFFSET 0.000000 0.000000 0.000000
    CHANNELS 3 Xposition Yposition Zposition
    End Site
    {
      OFFSET 0.000000 0.100000 0.000000
    }
  }
  JOINT Thorax
  {
    OFFSET 0.000000 0.000000 0.000000
    CHANNELS 3 Xposition Yposition Zposition
    End Site
    {
      OFFSET 0.000000 0.100000 0.000000
    }
  }
  JOINT Nose
  {
    OFFSET 0.000000 0.000000 0.000000
    CHANNELS 3 Xposition Yposition Zposition
    End Site
    {
      OFFSET 0.000000 0.100000 0.000000
    }
  }
  JOINT Head
  {
    OFFSET 0.000000 0.000000 0.000000
    CHANNELS 3 Xposition Yposition Zposition
    End Site
    {
      OFFSET 0.000000 0.100000 0.000000
    }
  }
  JOINT LShoulder
  {
    OFFSET 0.000000 0.000000 0.000000
    CHANNELS 3 Xposition Yposition Zposition
    End Site
    {
      OFFSET 0.000000 0.100000 0.000000
    }
  }
  JOINT LElbow
  {
    OFFSET 0.000000 0.000000 0.000000
    CHANNELS 3 Xposition Yposition Zposition
    End Site
    {
      OFFSET 0.000000 0.100000 0.000000
    }
  }
  JOINT LWrist
  {
    OFFSET 0.000000 0.000000 0.000000
    CHANNELS 3 Xposition Yposition Zposition
    End Site
    {
      OFFSET 0.000000 0.100000 0.000000
    }
  }
  JOINT RShoulder
  {
    OFFSET 0.000000 0.000000 0.000000
    CHANNELS 3 Xposition Yposition Zposition
    End Site
    {
      OFFSET 0.000000 0.100000 0.000000
    }
  }
  JOINT RElbow
  {
    OFFSET 0.000000 0.000000 0.000000
    CHANNELS 3 Xposition Yposition Zposition
    End Site
    {
      OFFSET 0.000000 0.100000 0.000000
    }
  }
  JOINT RWrist
  {
    OFFSET 0.000000 0.000000 0.000000
    CHANNELS 3 Xposition Yposition Zposition
    End Site
    {
      OFFSET 0.000000 0.100000 0.000000
    }
  }
}
MOTION
Frames: 21
Frame Time: 0.033333
0.000002 1.005065 0.000160 0.000000 0.000000 0.000000 0.020669 -0.005333 -0.018333 0.770073 0.236361 0.091044 -0.066596 0.450516 0.274495 -0.020681 0.005257 0.018090 -0.264180 0.442771 0.218726 -0.357855 0.007123 0.601231 0.171012 -0.025149 -0.155041 0.225595 0.048116 -0.188513 -0.175485 0.065649 -0.241091 -0.036839 0.044138 -0.267495 0.244041 -0.029379 -0.241865 0.546410 -0.618809 -0.507778 -0.428045 -0.070253 -0.414383 0.305720 0.060448 -0.082955 0.564219 -0.365607 -0.008086 -0.072380 -0.199041 0.100573
0.000003 1.005069 0.000111 0.000000 0.000000 0.000000 -0.015860 -0.016390 -0.003289 0.630840 0.273290 0.103236 -0.172867 0.435060 0.286289 0.015851 0.016305 0.003140 -0.243705 0.527043 0.204901 -0.526273 -0.034151 0.605226 0.158176 -0.046924 -0.184049 0.211907 0.024761 -0.218352 -0.178523 0.132909 -0.323925 0.008372 0.104306 -0.412562 0.289719 -0.045501 -0.287203 0.390507 -0.518353 -0.553892 -0.422814 -0.039284 -0.488683 0.212248 0.044984 -0.123110 0.613473 -0.279936 -0.126708 -0.312663 -0.152126 0.002550
0.000003 1.005075 0.000065 0.000000 0.000000 0.000000 -0.060221 -0.041242 0.030639 0.332716 0.285695 0.137989 -0.317551 0.349155 0.347812 0.060210 0.041137 -0.030698 -0.176926 0.612394 0.139620 -0.740853 -0.084633 0.525188 0.124889 -0.091634 -0.214046 0.164265 -0.003835 -0.269090 -0.170319 0.227852 -0.454369 0.082639 0.219389 -0.654853 0.330845 -0.060856 -0.362413 0.073741 -0.262056 -0.586833 -0.393050 -0.001499 -0.556382 0.046028 0.012001 -0.174348 0.694853 -0.170528 -0.282309 -0.617313 -0.104604 -0.129370
0.000004 1.005080 0.000028 0.000000 0.000000 0.000000 -0.093235 -0.069555 0.067565 0.037759 0.245484 0.157102 -0.431113 0.202945 0.434294 0.093211 0.069432 -0.067545 -0.099989 0.646508 0.026387 -0.853743 -0.109835 0.360623 0.086036 -0.123150 -0.226129 0.110178 -0.007546 -0.308812 -0.164655 0.275749 -0.565618 0.125825 0.330684 -0.818499 0.337153 -0.055287 -0.424984 -0.274962 -0.022778 -0.611785 -0.368709 0.006465 -0.571188 -0.091620 -0.007276 -0.197086 0.827341 -0.099145 -0.373920 -0.806212 -0.098492 -0.190170
0.000004 1.005079 -0.000009 0.000000 0.000000 0.000000 -0.120316 -0.087067 0.083631 -0.132037 0.162383 0.136227 -0.513003 0.066408 0.495256 0.120279 0.086938 -0.083529 -0.039905 0.615294 -0.102568 -0.806453 -0.049954 0.176877 0.061004 -0.116762 -0.230183 0.078899 0.013740 -0.340569 -0.149709 0.233689 -0.624302 0.108108 0.351331 -0.808034 0.323654 -0.031712 -0.464572 -0.478253 0.114913 -0.643802 -0.276703 0.028620 -0.575732 -0.148384 0.002612 -0.214031 0.960168 -0.053903 -0.415859 -0.864480 -0.133111 -0.203864
0.000004 1.005075 -0.000040 0.000000 0.000000 0.000000 -0.140364 -0.091295 0.078444 -0.175646 0.055713 0.102463 -0.533180 -0.006067 0.511650 0.140321 0.091172 -0.078273 -0.036585 0.558490 -0.198072 -0.618430 0.101849 0.045375 0.048886 -0.081256 -0.232787 0.071910 0.043941 -0.369747 -0.087921 0.100366 -0.624553 0.066674 0.257320 -0.667401 0.311489 -0.001805 -0.478994 -0.489801 0.172200 -0.634958 -0.121299 0.081319 -0.603370 -0.150402 0.031610 -0.249457 1.016590 -0.025469 -0.443879 -0.797018 -0.190828 -0.210357
0.000004 1.005070 -0.000055 0.000000 0.000000 0.000000 -0.129033 -0.091871 0.056756 -0.138736 -0.067386 0.106488 -0.442251 -0.005702 0.506422 0.128991 0.091757 -0.056556 -0.091833 0.521711 -0.192455 -0.393406 0.265495 0.019859 0.027155 -0.036086 -0.229449 0.055124 0.062014 -0.382718 0.020930 -0.089995 -0.586768 0.032135 0.103968 -0.493495 0.269182 0.028734 -0.447587 -0.409403 0.148143 -0.555385 -0.019519 0.109680 -0.601533 -0.140715 0.066467 -0.298094 1.002012 -0.034622 -0.470824 -0.631662 -0.293542 -0.222586
0.000004 1.005069 -0.000069 0.000000 0.000000 0.000000 -0.104543 -0.098616 0.031735 -0.109298 -0.181840 0.146572 -0.296422 0.031474 0.484526 0.104507 0.098501 -0.031515 -0.181616 0.494291 -0.113724 -0.259139 0.346923 0.070984 -0.018268 0.003602 -0.217679 0.003810 0.063557 -0.369132 0.128495 -0.259100 -0.552667 0.003223 -0.027719 -0.374972 0.197373 0.057233 -0.377709 -0.359812 0.048615 -0.463048 0.007214 0.061467 -0.561692 -0.162393 0.100911 -0.338725 0.938759 -0.087135 -0.496028 -0.434270 -0.441575 -0.275113
0.000004 1.005071 -0.000093 0.000000 0.000000 0.000000 -0.105666 -0.110109 0.023336 -0.121619 -0.238137 0.192965 -0.175980 0.055102 0.402282 0.105634 0.109994 -0.023073 -0.323553 0.462672 -0.031149 -0.323210 0.321265 0.116873 -0.075904 0.029945 -0.194943 -0.062506 0.064186 -0.312301 0.201029 -0.340951 -0.510427 -0.048345 -0.094627 -0.291173 0.142264 0.076190 -0.291641 -0.385396 -0.112366 -0.435569 -0.023980 -0.093269 -0.535959 -0.222386 0.113904 -0.330350 0.790605 -0.153211 -0.478607 -0.239183 -0.563269 -0.354908
0.000004 1.005069 -0.000105 0.000000 0.000000 0.000000 -0.118790 -0.123983 0.033957 -0.154168 -0.232863 0.231059 -0.117107 0.034905 0.264355 0.118753 0.123877 -0.033671 -0.542951 0.415104 0.030308 -0.517217 0.228537 0.127238 -0.130646 0.033305 -0.165844 -0.136840 0.056641 -0.215016 0.210299 -0.342241 -0.433432 -0.150462 -0.115236 -0.191301 0.088491 0.066801 -0.209197 -0.492239 -0.303354 -0.464586 -0.183576 -0.324634 -0.534134 -0.303115 0.075803 -0.264602 0.548530 -0.196405 -0.412166 -0.033542 -0.609406 -0.389515
0.000005 1.005066 -0.000091 0.000000 0.000000 0.000000 -0.119626 -0.139361 0.054215 -0.250261 -0.171186 0.248835 -0.158864 0.017329 0.174737 0.119586 0.139264 -0.053960 -0.755316 0.368888 0.053708 -0.594468 0.159666 0.144731 -0.175125 0.018049 -0.153747 -0.235687 0.038242 -0.151651 0.157704 -0.308957 -0.370143 -0.271175 -0.101505 -0.138433 -0.016208 0.043692 -0.179971 -0.630287 -0.425966 -0.489704 -0.472123 -0.493421 -0.544384 -0.400570 0.010700 -0.212141 0.254221 -0.179302 -0.356400 0.088824 -0.550230 -0.355227
0.000004 1.005067 -0.000036 0.000000 0.000000 0.000000 -0.096207 -0.152203 0.078624 -0.395662 -0.054186 0.237132 -0.255218 0.048492 0.166557 0.096167 0.152103 -0.078483 -0.856806 0.335181 0.042631 -0.468510 0.135917 0.164899 -0.190295 0.005675 -0.161706 -0.311265 0.037372 -0.160250 0.100480 -0.247986 -0.345787 -0.327203 -0.052861 -0.159271 -0.139109 0.043643 -0.217266 -0.729962 -0.421979 -0.472274 -0.792255 -0.503467 -0.566389 -0.447158 -0.021292 -0.202883 0.041287 -0.104532 -0.315272 0.029331 -0.426131 -0.276832
0.000003 1.005068 0.000041 0.000000 0.000000 0.000000 -0.040590 -0.157178 0.093706 -0.487807 0.086604 0.235104 -0.356864 0.115898 0.160800 0.040552 0.157069 -0.093719 -0.832384 0.344476 0.037440 -0.208532 0.130432 0.167746 -0.174496 0.009565 -0.176087 -0.300543 0.055249 -0.186192 0.105898 -0.197718 -0.327288 -0.269060 0.000349 -0.195756 -0.220891 0.058315 -0.258517 -0.730622 -0.351525 -0.409880 -1.040969 -0.406943 -0.555126 -0.362033 -0.002448 -0.201855 0.050251 -0.025109 -0.260861 -0.145283 -0.363345 -0.181698
0.000003 1.005070 0.000098 0.000000 0.000000 0.000000 0.046889 -0.155548 0.093808 -0.500349 0.170821 0.256589 -0.454158 0.151120 0.135627 -0.046927 0.155427 -0.093929 -0.728752 0.376064 0.066474 0.106017 0.104879 0.178043 -0.140846 0.022075 -0.184648 -0.218618 0.062306 -0.185686 0.161816 -0.201570 -0.300805 -0.117843 0.023575 -0.233846 -0.258151 0.052828 -0.266846 -0.598180 -0.288747 -0.357458 -1.094500 -0.318250 -0.519639 -0.174691 0.035657 -0.190131 0.243109 0.012762 -0.192232 -0.333173 -0.442071 -0.087478
0.000003 1.005076 0.000124 0.000000 0.000000 0.000000 0.140463 -0.155503 0.087805 -0.421114 0.182630 0.283953 -0.506302 0.136002 0.159697 -0.140503 0.155362 -0.087966 -0.606477 0.362849 0.122208 0.381528 0.052765 0.198699 -0.096164 0.037401 -0.186965 -0.108538 0.059100 -0.171257 0.199863 -0.267125 -0.275225 0.070264 0.019274 -0.248629 -0.253915 0.020638 -0.269782 -0.376976 -0.254055 -0.362213 -0.975953 -0.283131 -0.522221 0.029166 0.079520 -0.169258 0.468738 0.009732 -0.124444 -0.471443 -0.574153 -0.003625
0.000003 1.005081 0.000142 0.000000 0.000000 0.000000 0.219502 -0.158033 0.080800 -0.236212 0.170982 0.313931 -0.479052 0.078099 0.258372 -0.219545 0.157876 -0.080980 -0.517965 0.271358 0.186046 0.480819 0.030867 0.202628 -0.048989 0.053740 -0.185007 -0.011958 0.076018 -0.157095 0.167450 -0.347577 -0.253293 0.222618 0.032795 -0.230028 -0.218099 0.003879 -0.280463 -0.173950 -0.220992 -0.407579 -0.863532 -0.326793 -0.541379 0.187581 0.125533 -0.142780 0.659464 -0.013417 -0.064864 -0.492850 -0.669802 0.068865
0.000003 1.005080 0.000164 0.000000 0.000000 0.000000 0.266149 -0.153759 0.070398 0.020227 0.160391 0.337322 -0.443152 -0.021761 0.337517 -0.266188 0.153602 -0.070607 -0.499762 0.131064 0.260115 0.393007 0.037278 0.215770 -0.013476 0.064355 -0.179664 0.049698 0.109280 -0.145942 0.058668 -0.406943 -0.244602 0.243062 0.073529 -0.209667 -0.159021 0.029119 -0.278275 -0.024744 -0.185365 -0.483105 -0.866778 -0.463634 -0.552404 0.275391 0.156964 -0.119803 0.775621 -0.029451 -0.026970 -0.339089 -0.675215 0.111571
0.000003 1.005076 0.000151 0.000000 0.000000 0.000000 0.248714 -0.132362 0.060743 0.254714 0.137869 0.338176 -0.481790 -0.107177 0.355995 -0.248743 0.132215 -0.060918 -0.591969 -0.007977 0.329576 0.192394 0.041953 0.287796 -0.029031 0.063399 -0.183261 0.025433 0.129844 -0.158416 -0.088752 -0.426571 -0.265582 0.101143 0.107241 -0.204584 -0.116055 0.084011 -0.263159 0.058251 -0.154413 -0.553128 -0.966320 -0.618531 -0.557522 0.214703 0.161373 -0.134670 0.729105 -0.008525 -0.056874 -0.142230 -0.550884 0.075608
0.000003 1.005074 0.000112 0.000000 0.000000 0.000000 0.180990 -0.096665 0.056470 0.387423 0.137248 0.327271 -0.573869 -0.098591 0.328338 -0.181011 0.096526 -0.056569 -0.765960 -0.087733 0.349749 -0.027244 0.062269 0.379419 -0.088941 0.054494 -0.189849 -0.087184 0.134444 -0.175626 -0.244321 -0.410012 -0.296594 -0.134686 0.114967 -0.192476 -0.118040 0.148191 -0.237999 0.009788 -0.146313 -0.554799 -1.086717 -0.680451 -0.553806 0.013680 0.143218 -0.171286 0.517838 0.048352 -0.125363 -0.055275 -0.359476 -0.017599
0.000003 1.005072 0.000090 0.000000 0.000000 0.000000 0.117546 -0.064409 0.052892 0.371461 0.188507 0.314395 -0.653724 -0.001410 0.285359 -0.117562 0.064279 -0.052955 -0.929226 -0.063028 0.306509 -0.205385 0.126538 0.426346 -0.155167 0.059315 -0.179110 -0.232720 0.150239 -0.168988 -0.334061 -0.358944 -0.314460 -0.363442 0.124543 -0.191697 -0.172056 0.215527 -0.201242 -0.197083 -0.150378 -0.476696 -1.153861 -0.644123 -0.525256 -0.216162 0.133879 -0.192637 0.259339 0.107777 -0.180170 -0.099759 -0.212361 -0.111136
0.000004 1.005070 0.000105 0.000000 0.000000 0.000000 0.098103 -0.044337 0.046216 0.256620 0.245605 0.295770 -0.684896 0.113018 0.238231 -0.098117 0.044214 -0.046322 -0.997479 0.049137 0.243909 -0.287880 0.191408 0.417200 -0.197509 0.087001 -0.161238 -0.354594 0.181244 -0.147777 -0.295887 -0.280812 -0.308696 -0.517906 0.135677 -0.216659 -0.268028 0.262341 -0.167147 -0.479205 -0.132806 -0.377283 -1.071555 -0.552724 -0.482719 -0.366781 0.141468 -0.195567 0.027199 0.125359 -0.217667 -0.160774 -0.127585 -0.197095
